<?xml version="1.0" encoding="UTF-8"?>
<svg width="1024px" height="1024px" viewBox="0 0 1024 1024" version="1.1" xmlns="http://www.w3.org/2000/svg" xmlns:xlink="http://www.w3.org/1999/xlink">
    <title>price_green@1x</title>
    <g id="price_green" stroke="none" stroke-width="1" fill="none" fill-rule="evenodd">
        <g id="price" transform="translate(282, 68)" stroke="#009A00">
            <path d="M419.242767,887 L39.7574151,887 C17.8001015,887 0,869.193351 0,847.227737 L0,390.102758 C-0.0234990868,384.594444 2.26738174,379.329621 6.31356219,375.593563 L207.829839,187.14473 C215.377897,180.28509 226.900358,180.28509 234.448416,187.14473 L452.174724,374.910778 C456.489599,378.713166 458.973447,384.179699 459,389.932062 L459,847.739826 C458.719842,869.505197 441.001716,887 419.242767,887 L419.242767,887 Z" id="Path" stroke-width="60.5" stroke-linecap="round"></path>
            <path d="M229.573668,328 C154.709718,328 94,254.370833 94,163.658333 C94,72.9458333 154.709718,0 229.573668,0 C304.437618,0 366,73.4583333 366,164.170833" id="Path" stroke-width="45.5" stroke-linecap="round"></path>
            <path d="M362,696.721859 C308.192975,737.709458 232.576934,733.752547 183.354573,687.373525 C134.132211,640.994503 125.788316,565.84144 163.641841,509.821898 C201.495366,453.802356 274.40706,433.401346 335.898159,461.623829" id="Path" stroke-width="37.5"></path>
            <line x1="71" y1="547.5" x2="301" y2="547.5" id="Path" stroke-width="37.5"></line>
            <line x1="71" y1="633.5" x2="273" y2="633.5" id="Path" stroke-width="37.5"></line>
        </g>
    </g>
</svg>