<?xml version="1.0" encoding="UTF-8"?>
<svg width="1024px" height="1024px" viewBox="0 0 1024 1024" version="1.1" xmlns="http://www.w3.org/2000/svg" xmlns:xlink="http://www.w3.org/1999/xlink">
    <title>prova kevin white@1x</title>
    <g id="prova-kevin-white" stroke="none" stroke-width="1" fill="none" fill-rule="evenodd">
        <path d="M515.5,806 C677.595574,806 809,674.595574 809,512.5 C809,350.404426 677.595574,219 515.5,219 C353.404426,219 222,350.404426 222,512.5 C222,674.595574 353.404426,806 515.5,806 Z" id="Oval" fill-opacity="0" fill="#FFFFFF" stroke-dasharray="50,30"></path>
        <path d="M564.607527,791.936624 L566.293392,801.793493 C550.109171,804.559291 533.472833,806 516.5,806 C515.287456,806 514.076629,805.992647 512.867561,805.977983 L512.990532,795.978739 L514.744612,795.994683 L516.5,796 L518.240567,795.994773 C533.319496,795.904186 548.241659,794.63652 562.915499,792.220491 L564.607527,791.936624 Z M436.719077,784.622446 C452.117184,789.129189 467.923056,792.324712 484.009159,794.159376 L482.876473,804.09502 C466.083044,802.179712 449.719981,798.8471 433.909848,794.219749 L436.719077,784.622446 Z M366.398826,753.04979 C380.054044,761.589194 394.415702,768.952655 409.337646,775.049712 L405.554965,784.306673 C390.025762,777.961474 375.161687,770.324116 361.096372,761.528232 L366.398826,753.04979 Z M307.228131,703.755267 C318.104271,715.649117 329.973099,726.604579 342.697549,736.492634 L336.561808,744.389006 C323.38156,734.14678 311.097736,722.805597 299.847889,710.503009 L307.228131,703.755267 Z M753.289309,668.453666 L761.635448,673.96202 C752.431042,687.908199 742.068442,701.022615 730.684641,713.168278 L723.388381,706.329814 C734.408497,694.572183 744.415273,681.899275 753.289309,668.453666 Z M263.394434,640.350272 C270.670446,654.725194 279.163672,668.452416 288.771202,681.385418 L280.744529,687.349689 C270.837188,674.013214 262.034678,659.807056 254.472403,644.866615 L263.394434,640.350272 Z M786.555214,599.028698 L796.078709,602.078786 C790.954006,618.086284 784.492644,633.495824 776.82594,648.176086 L767.962178,643.546429 C775.41277,629.279915 781.636535,614.392874 786.555214,599.028698 Z M223.868168,489.756269 L233.838809,490.521992 C233.281416,497.795327 233.000844,505.113663 233,512.465672 C233,521.32826 233.403222,530.110226 234.205637,538.827807 L224.247904,539.746261 C223.42208,530.774979 223,521.68678 223,512.5 C223,504.846807 223.292923,497.26203 223.868168,489.756269 Z M801.972659,444.038317 C805.794639,460.033887 808.307111,476.537942 809.390451,493.430858 L799.411012,494.071793 C798.373597,477.894167 795.971085,461.950798 792.246775,446.363649 L801.972659,444.038317 Z M250.13935,415.188473 C244.625279,430.277348 240.401746,445.843484 237.527359,461.752855 L227.686871,459.973866 C230.686163,443.373506 235.081549,427.258746 240.747063,411.755551 L250.13935,415.188473 Z M772.98107,369.703341 C781.054819,384.173819 787.939466,399.398257 793.502834,415.244476 L784.067327,418.556756 C778.725529,403.341702 772.091646,388.63308 764.248245,374.575483 L772.98107,369.703341 Z M725.025937,305.958973 C736.746983,317.791955 747.46795,330.617305 757.051588,344.297775 L748.861431,350.035487 C739.617201,336.839497 729.262868,324.446204 717.921462,312.996475 L725.025937,305.958973 Z M405.345527,251.617351 C390.518613,257.943052 376.268715,265.526859 362.742321,274.27587 L357.31112,265.879319 C371.246492,256.865764 385.994445,249.00119 401.420909,242.419668 L405.345527,251.617351 Z M478.416466,223.448207 L479.701142,233.365345 C463.654008,235.444543 447.901515,238.881929 432.572736,243.625853 L429.615106,234.073239 C445.356895,229.201424 461.665129,225.618633 478.416466,223.448207 Z M516.5,223 C530.662945,223 544.591587,224.003171 558.218747,225.942333 L556.808927,235.842454 C543.549346,233.955647 530.101542,233.001468 516.532409,233 C513.863942,233 511.228262,233.035951 508.593568,233.108049 L508.318679,223.111827 C511.036719,223.037437 513.763988,223 516.5,223 Z" id="Oval" fill="#FFFFFF" fill-rule="nonzero"></path>
        <g id="airplane" transform="translate(748, 484)" fill="#FFFFFF" fill-rule="nonzero">
            <path d="M23.9174265,87.0679237 L34.7651041,108.399478 C35.5654589,109.199242 36.8641399,109.200309 37.6658145,108.401862 L43.707698,102.373732 L38.5917135,82.6513135 C40.4975054,81.7061227 42.2353099,80.4559962 43.7361597,78.9505468 L63.6428105,60.6407434 L89.4410111,107.400933 C89.9506373,107.9099 90.6421094,108.195965 91.3632142,108.196159 C92.084319,108.196352 92.7759453,107.910658 93.285846,107.401965 L102.974687,97.7349461 L85.6784584,40.0781927 L104.879307,22.1601498 C110.162674,16.8868615 110.396146,8.57196763 105.402462,3.59006234 C100.406067,-1.39319508 92.0728683,-1.16016698 86.7871119,4.11166242 L68.6949165,23.4081614 L11.28989,6.2649218 L1.6000143,15.9323323 C1.08998166,16.4408934 0.803425666,17.1308113 0.803425666,17.8502152 C0.803425666,18.569619 1.08998166,19.259537 1.6000143,19.768098 L48.1446304,45.3242606 L29.8635815,65.1105491 C28.3082683,66.6510578 27.025626,68.4431614 26.0700348,70.4108799 L6.64256171,65.3944954 L0.600214548,71.4236216 C-0.200071516,72.222637 -0.200071516,73.5174425 0.600214548,74.3164579 L21.9810992,85.1371956 L23.9174265,87.0679237 Z" id="Path"></path>
        </g>
        <g id="baggage" transform="translate(570, 697)" fill="#FFFFFF" fill-rule="nonzero">
            <g id="Group">
                <g transform="translate(112.111, 21.9869)">
                    <g transform="translate(3.7224, 0)" id="Rectangle">
                        <rect x="12.3830469" y="0" width="4.84375" height="35.7441811"></rect>
                        <rect x="0" y="0" width="4.84375" height="35.7441811"></rect>
                    </g>
                    <g transform="translate(3.7224, 64.7336)" id="Rectangle">
                        <rect x="12.3830469" y="0" width="4.84375" height="35.745396"></rect>
                        <rect x="0" y="0" width="4.84375" height="35.745396"></rect>
                    </g>
                    <path d="M19.7540234,67.8704514 L4.92003906,67.8704514 C2.20753906,67.8704514 0,65.6411478 0,62.9015948 L0,39.0413638 C0,36.3054554 2.20632813,34.0785815 4.92003906,34.0785815 L19.7540234,34.0785815 C22.4653125,34.0785815 24.6716406,36.3054554 24.6716406,39.0413638 L24.6716406,62.9028096 C24.6704297,65.6411478 22.4653125,67.8704514 19.7540234,67.8704514 Z M4.92003906,38.938099 C4.88371094,38.938099 4.84375,38.9794049 4.84375,39.0413638 L4.84375,62.9028096 C4.84375,62.9684131 4.8825,63.0121488 4.92003906,63.0121488 L19.7540234,63.0121488 C19.7842969,63.0121488 19.8278906,62.9744875 19.8278906,62.9028096 L19.8278906,39.0413638 C19.8278906,38.9794049 19.7903516,38.938099 19.7540234,38.938099 L4.92003906,38.938099 Z" id="Shape"></path>
                    <rect id="Rectangle" x="9.91636719" y="55.3839212" width="4.84375" height="8.47742831"></rect>
                </g>
                <path d="M155,126 L0,126 L0,19.146499 L155,19.146499 L155,126 Z M4.84375,121.140482 L150.15625,121.140482 L150.15625,24.0060165 L4.84375,24.0060165 L4.84375,121.140482 Z" id="Shape"></path>
                <polygon id="Path" points="99.4312891 12.5885801 94.5875391 12.5885801 94.5875391 4.85951752 60.4148828 4.85951752 60.4148828 12.5885801 55.5711328 12.5885801 55.5711328 0 99.4312891 0"></polygon>
                <g transform="translate(18.2186, 21.9869)">
                    <g transform="translate(3.7224, 0)" id="Rectangle">
                        <rect x="12.3818359" y="0" width="4.84375" height="35.7441811"></rect>
                        <rect x="0" y="0" width="4.84375" height="35.7441811"></rect>
                    </g>
                    <g transform="translate(3.7224, 64.7336)" id="Rectangle">
                        <rect x="12.3818359" y="0" width="4.84375" height="35.745396"></rect>
                        <rect x="0" y="0" width="4.84375" height="35.745396"></rect>
                    </g>
                    <path d="M19.7503906,67.8704514 L4.92003906,67.8704514 C2.20753906,67.8704514 0,65.6411478 0,62.9015948 L0,39.0413638 C0,36.3054554 2.20753906,34.0785815 4.92003906,34.0785815 L19.7516016,34.0785815 C22.4641016,34.0785815 24.6704297,36.3054554 24.6704297,39.0413638 L24.6704297,62.9028096 C24.6680078,65.6423627 22.4604688,67.8704514 19.7503906,67.8704514 Z M4.92003906,38.938099 C4.88371094,38.938099 4.84375,38.97819 4.84375,39.0413638 L4.84375,62.9028096 C4.84375,62.9708429 4.88371094,63.0121488 4.92003906,63.0121488 L19.7503906,63.0121488 C19.781875,63.0121488 19.8254687,62.9744875 19.8254687,62.9028096 L19.8266797,39.0413638 C19.8266797,38.9733305 19.7830859,38.938099 19.7516016,38.938099 L4.92003906,38.938099 Z" id="Shape"></path>
                    <rect id="Rectangle" x="9.91273437" y="55.3839212" width="4.84375" height="8.47742831"></rect>
                </g>
            </g>
        </g>
        <g id="bicycle" transform="translate(168, 552)" fill="#FFFFFF" fill-rule="nonzero">
            <path d="M35,109 C15.6700338,109 0,93.3299662 0,74 C0,54.6700338 15.6700338,39 35,39 C54.3299662,39 70,54.6700338 70,74 C69.9782392,93.3209455 54.3209455,108.978239 35,109 L35,109 Z M35,45.5829483 C23.5054439,45.5829483 13.1427511,52.5072023 8.74415056,63.1268602 C4.34555004,73.7465181 6.77729788,85.9701549 14.9054454,94.0977646 C23.0335928,102.225374 35.2573905,104.656313 45.8767574,100.25701 C56.4961242,95.857707 63.4196925,85.4945561 63.418932,74 C63.4002801,58.3126941 50.6873071,45.6005623 35,45.5829483 L35,45.5829483 Z" id="Shape"></path>
            <path d="M142,109 C122.670034,109 107,93.3299662 107,74 C107,54.6700338 122.670034,39 142,39 C161.329966,39 177,54.6700338 177,74 C176.978239,93.3209455 161.320945,108.978239 142,109 L142,109 Z M142,45.5829483 C130.505444,45.5829483 120.142751,52.5072023 115.744151,63.1268602 C111.34555,73.7465181 113.777298,85.9701549 121.905445,94.0977646 C130.033593,102.225374 142.257391,104.656313 152.876757,100.25701 C163.496124,95.857707 170.419693,85.4945561 170.418932,74 C170.40028,58.3126941 157.687307,45.6005623 142,45.5829483 L142,45.5829483 Z" id="Shape"></path>
            <path d="M35.3142176,77 C34.9169697,77.000794 34.5229265,76.9289848 34.1515459,76.7881119 C33.3286153,76.4809417 32.6616642,75.8595443 32.2976064,75.0607994 C31.9335487,74.2620546 31.9022497,73.3514866 32.2106038,72.5296729 L56.9069623,6.62129568 L45.1098213,6.62129568 C43.279658,6.62129568 41.7960176,5.13906816 41.7960176,3.31064784 C41.7960176,1.48222753 43.279658,0 45.1098213,0 L61.686414,0 C62.7727076,0 63.7899857,0.532052448 64.4091003,1.42380024 C65.0282149,2.31554803 65.170541,3.45382025 64.7900279,4.47032048 L38.4178314,74.8452346 C37.934408,76.1398977 36.6973468,76.9987573 35.3142176,77 L35.3142176,77 Z" id="Path"></path>
            <path d="M38.2467994,27 C37.4658337,27.00081 36.7107972,26.7166783 36.1203657,26.1997891 C31.4519323,22.1328035 29.7776642,15.5587527 31.9226866,9.71750804 C34.0677089,3.87626336 39.5794023,0.000380462459 45.7414542,0 C46.9056205,0 47.9813545,0.628019339 48.5634376,1.64748938 C49.1455208,2.66695942 49.1455208,3.92299832 48.5634376,4.94246836 C47.9813545,5.9619384 46.9056205,6.58995781 45.7414542,6.58995774 C42.3032313,6.5901702 39.2279606,8.7529886 38.031464,12.0123451 C36.8349673,15.2717016 37.7697675,18.9397031 40.3750952,21.2083668 C41.4075146,22.1074862 41.7776954,23.5612179 41.3030986,24.8527157 C40.8285019,26.1442136 39.6093434,27.0007651 38.2467994,27 L38.2467994,27 Z" id="Path"></path>
            <path d="M86.3345841,77 C85.2060006,77 84.153782,76.4366284 83.5386225,75.5014066 C82.9234629,74.5661848 82.8289472,73.3867877 83.2874748,72.3675054 L113.617639,4.95822155 C114.365465,3.29486143 116.335936,2.54564571 118.018808,3.28480137 C119.70168,4.02395703 120.459684,5.97158088 119.711858,7.63494104 L89.3816935,75.0442249 C88.8460109,76.2338298 87.6519721,77 86.3345841,77 L86.3345841,77 Z" id="Path"></path>
            <path d="M124.639362,9 L104.351064,9 C102.500322,9 101,7.65685425 101,6 C101,4.34314575 102.500322,3 104.351064,3 L124.648936,3 C126.499678,3 128,4.34314575 128,6 C128,7.65685425 126.499678,9 124.648936,9 L124.639362,9 Z" id="Path"></path>
            <path d="M145.564677,72.0824459 L114.819911,18.6725536 C114.639189,17.7231906 114.044215,16.9009192 113.193773,16.4251844 C112.343332,15.9494496 111.32397,15.8686656 110.407732,16.2043919 L53.5487102,16.2043919 L32.2111516,72.557309 C31.9019954,73.3726631 31.9333759,74.2760739 32.2983807,75.0685406 C32.6633854,75.8610072 33.3320717,76.4775203 34.1571431,76.7822762 C34.5294897,76.9220418 34.9245581,76.9932865 35.3228394,76.9924922 C36.7086028,76.9918517 37.9485999,76.1414327 38.4345271,74.8584239 L56.4705451,27.2144576 L84.1833615,75.333287 C84.1928541,75.3501793 84.2080423,75.3633178 84.2194335,75.3802102 C84.3513597,75.6018538 84.5094084,75.8072477 84.6902685,75.9920891 C84.7320361,76.0333815 84.7776008,76.0652893 84.8193684,76.1047048 C84.9685549,76.2436976 85.1299306,76.3693195 85.3015946,76.4800906 C85.3775357,76.5251369 85.4515783,76.5683063 85.5313165,76.6077218 C85.6110547,76.6471373 85.6528223,76.6846759 85.7211693,76.7165837 C85.8231282,76.7550923 85.9270567,76.7882968 86.0325279,76.8160609 C86.1160632,76.8423379 86.1958014,76.8742457 86.2812351,76.8948919 C86.5386307,76.9611398 86.8031736,76.996431 87.0691243,77 L142.677016,77 C143.860586,77 144.954895,76.3779033 145.549802,75.3663509 C146.144709,74.3547985 146.150375,73.1067448 145.564677,72.0899536 L145.564677,72.0824459 Z M105.344881,22.7755204 L85.7065055,66.4347665 L60.5661949,22.7755204 L105.344881,22.7755204 Z M91.1837593,70.4232407 L110.822135,26.7639946 L135.962446,70.4232407 L91.1837593,70.4232407 Z" id="Shape"></path>
        </g>
        <g id="co2" transform="translate(563, 201)" fill="#FFFFFF" fill-rule="nonzero">
            <path d="M93.5,51 C84.4019755,51 77,58.2147608 77,67.0826734 L77,77.9173266 C77,86.7852392 84.4019755,94 93.5,94 C102.598025,94 110,86.7852392 110,77.9173266 L110,67.0826734 C110,58.2144441 102.5977,51 93.5,51 Z M104.789337,77.9170098 C104.789337,83.9844789 99.7245879,88.9208109 93.5,88.9208109 C87.2754121,88.9208109 82.2106631,83.9841622 82.2106631,77.9170098 L82.2106631,67.0823567 C82.2106631,61.0148876 87.2754121,56.0785556 93.5,56.0785556 C99.7249128,56.0785556 104.789337,61.0152043 104.789337,67.0823567 L104.789337,77.9170098 Z" id="Shape"></path>
            <path d="M72.0017527,84.012987 C70.8978482,83.1710485 69.3308652,83.3972125 68.5013777,84.5182135 C66.4320246,87.3161229 63.2724879,88.9208109 59.833233,88.9208109 C53.8599873,88.9208109 49.000313,83.9841622 49.000313,77.9170098 L49.000313,67.0823567 C49.000313,61.0148876 53.8602991,56.0785556 59.833233,56.0785556 C63.2690577,56.0785556 66.4264115,57.6803928 68.4957646,60.4735508 C69.3258758,61.594235 70.892547,61.8191321 71.9964514,60.9756098 C73.0997322,60.1320874 73.3211368,58.5400697 72.4907138,57.4197022 C69.4680737,53.3398796 64.8544391,51 59.8329212,51 C51.1027208,51 44,58.2147608 44,67.0826734 L44,77.9173266 C44,86.7852392 51.1027208,94 59.8329212,94 C64.8594285,94 69.4758696,91.6560025 72.4985097,87.5692113 C73.3279972,86.4469433 73.1053453,84.8552423 72.0017527,84.012987 Z" id="Path"></path>
            <path d="M125.445911,95.9291766 L118.580761,95.9291766 L124.799108,91.2982357 C126.80289,89.8062404 127.999045,87.4306853 127.999045,84.9434994 C127.999045,80.5633326 124.410581,77 119.999522,77 C115.588464,77 112,80.5633326 112,84.9434994 C112,86.3434704 113.142971,87.478753 114.553134,87.478753 C115.962978,87.478753 117.106268,86.3437866 117.106268,84.9434994 C117.106268,83.3591636 118.404331,82.0701909 119.999841,82.0701909 C121.59535,82.0701909 122.893414,83.3591636 122.893414,84.9434994 C122.893414,85.8428709 122.46062,86.7023968 121.736112,87.2422094 L114.111104,92.9211521 C112.789793,93.9055908 112.000637,95.4722175 112.000637,97.1125268 L112.000637,98.4647464 C112.000637,99.8647174 113.143608,101 114.553771,101 L125.446866,101 C126.856711,101 128,99.8650337 128,98.4647464 C128,97.0644592 126.856074,95.9291766 125.445911,95.9291766 Z" id="Path"></path>
            <path d="M136.480161,54.6297887 C132.964522,54.2350188 129.42819,54.4820684 125.969219,55.3645701 C125.905229,55.381125 125.861932,55.3432398 125.856839,55.3343257 C124.648029,51.0545741 122.798045,46.9696606 120.415446,43.2177546 L149.091955,43.2177546 C156.208234,43.2177546 162.290165,37.8896342 162.938981,31.0878123 C163.299682,27.30407 162.049167,23.5308337 159.507707,20.7359264 C156.964337,17.9387906 153.338864,16.3342419 149.560261,16.3342419 C148.099629,16.3342419 146.658418,16.573014 145.275785,17.044191 C145.240129,17.025726 145.162449,16.9693757 145.110556,16.8480795 C142.119255,9.92050424 135.317196,5.44432281 127.781319,5.44432281 C120.400801,5.44432281 113.748689,9.7581392 110.674933,16.3558906 C105.274927,16.6650209 100.676549,20.1985299 98.8733632,25.1633983 C96.9074962,24.3614424 94.8913284,23.6919253 92.8296353,23.1726755 C89.2461859,15.680643 81.6956646,10.888964 73.3333278,10.888964 C72.0828135,10.888964 70.8151078,11.0029379 69.5661853,11.2283388 C69.438205,11.2515792 69.2994004,11.1904536 69.25292,11.1181852 C64.7424092,4.15590842 57.1081594,0 48.8320979,0 C39.0205907,0 30.2227387,5.85564759 26.4177115,14.9178456 C26.3693209,15.0324563 26.2836823,15.091035 26.2419773,15.1082266 C22.5095359,13.5218246 18.3957005,13.1900905 14.3436266,14.1496361 C7.34959692,15.8057596 1.8836906,21.4270921 0.418283951,28.4708698 C-0.766648387,34.1670176 0.621715377,39.976821 4.22744984,44.409705 C6.84595292,47.62899 10.3822851,49.8451137 14.3076521,50.8205774 C11.3634677,53.0367011 8.75674387,55.6787942 6.58521687,58.6863679 C2.3889264,64.4974447 0.112977634,71.2518306 0.0044172023,78.2185645 C-0.143938109,87.7366581 3.44906199,96.7106696 10.1215491,103.488296 C16.7953096,110.266877 25.7090443,114 35.2203389,114 L132.264451,114 C138.718862,114 144.915402,112.082501 150.183926,108.454756 C155.567377,104.747739 159.473643,99.5905798 161.479623,93.5400942 C164.286595,85.0748264 163.131907,75.9002463 158.311632,68.3693735 C153.437555,60.7541345 145.276103,55.6176686 136.480161,54.6297887 Z M111.43995,21.4382348 C111.478153,21.4395083 111.589897,21.4547897 111.672033,21.4662507 C111.829621,21.4875811 111.987209,21.5079563 112.147025,21.5216459 C113.309035,21.62002 114.390183,20.9177116 114.77285,19.8158578 C116.697649,14.2731609 121.924786,10.5492708 127.780682,10.5492708 C133.277788,10.5492708 138.240368,13.8159919 140.423356,18.871912 C141.545254,21.4700711 144.333124,22.7635793 146.907693,21.8807592 C147.762806,21.587547 148.655166,21.4388715 149.559306,21.4388715 C151.903065,21.4388715 154.152271,22.4343921 155.730059,24.1697879 C157.329495,25.9287426 158.084642,28.2136326 157.857016,30.6035824 C157.455565,34.814886 153.605331,38.1137617 149.091636,38.1137617 L116.664221,38.1137617 C114.544269,35.6034707 112.162306,33.308393 109.546987,31.2982501 C107.623461,29.8200915 105.60793,28.5132121 103.518858,27.3706078 C104.554799,23.9036366 107.737116,21.4385532 111.43995,21.4382348 Z M8.18815463,41.1875548 C5.5559621,37.9513966 4.54549052,33.6945672 5.41620249,29.509051 C6.46328536,24.4754162 10.5236365,20.2988142 15.5199633,19.115778 C18.5115831,18.4074206 21.5344022,18.6481029 24.2624208,19.8120375 C25.5065679,20.3427483 26.8911114,20.3516625 28.1600905,19.8375065 C29.483509,19.3010651 30.5640196,18.227864 31.1240131,16.8929686 C34.1309143,9.73139672 41.0816471,5.10399294 48.8320979,5.10399294 C55.3705558,5.10399294 61.4031412,8.38981574 64.9687624,13.893354 C66.1492378,15.7156629 68.3093038,16.6411436 70.4712801,16.2521043 C71.4222185,16.0808251 72.3852546,15.993912 73.3333278,15.993912 C78.3570334,15.993912 82.9974348,18.2590636 86.0816971,22.0103328 C84.568855,21.8626125 83.0413683,21.778883 81.5001922,21.778883 C73.4106891,21.778883 65.4510764,23.9045917 58.4831521,27.926151 C51.7259816,31.8264141 46.0228978,37.420049 41.9915173,44.10344 C41.9727341,44.1343212 41.9157478,44.228875 41.7584784,44.1983121 C35.3034306,42.9493747 28.9556697,43.5494887 22.889975,45.9814623 C22.6515241,46.0769712 22.4165751,46.1801208 22.1806711,46.280405 L18.8862917,46.280405 L18.8862917,46.280405 C14.719927,46.280405 10.8206655,44.4240314 8.18815463,41.1875548 Z M156.634835,91.9333169 C153.270735,102.078585 143.477056,108.89537 132.264451,108.89537 L35.2206572,108.89537 C27.0875389,108.89537 19.4660235,105.703465 13.7591194,99.9070325 C8.05380711,94.1121922 4.9816424,86.4380561 5.1083493,78.2981552 C5.20067342,72.3826554 7.14266355,66.6339777 10.7242027,61.6735664 C14.2573513,56.7803296 19.1215591,52.9924487 24.7902601,50.7190197 C28.2224889,49.3427371 31.6633134,48.6585754 35.1993272,48.6585754 C37.0330752,48.6585754 38.8929287,48.8425891 40.7890752,49.2096615 C43.0121763,49.640088 45.1986662,48.6703548 46.3629052,46.7398026 C49.9498565,40.7940583 55.0235445,35.8170922 61.0354365,32.3472557 C67.2287933,28.7726778 74.3055963,26.8835127 81.5008289,26.8835127 C99.7628584,26.8835127 115.982615,39.153853 120.945195,56.7223876 C121.699706,59.3931334 124.519094,61.0024575 127.231195,60.3112918 C130.090695,59.5816042 133.011003,59.3772153 135.911254,59.7029005 C143.19308,60.5210929 149.960756,64.7893834 154.013467,71.1216202 C158.0579,77.4411224 158.989419,84.8325523 156.634835,91.9333169 Z" id="Shape"></path>
        </g>
        <g id="passport2" transform="translate(241, 264)" fill="#FFFFFF" fill-rule="nonzero">
            <path d="M89.1296679,0 L19.8705996,0 C8.89363106,0.00215625 0.00213949928,8.96353125 0,20.0283281 L0,117.973828 C0.00213949928,129.032156 8.89363106,137.995418 19.8705996,138 L89.1294004,138 C100.106369,137.995418 108.997861,129.032426 109,117.973828 L109,20.0283281 C108.998128,8.96353125 100.106636,0.00215625 89.1296679,0 Z M100.102357,117.973828 C100.100218,121.041094 98.8812382,123.777914 96.8893643,125.792121 C94.8886651,127.802016 92.1731056,129.027844 89.1296679,129.032426 L19.8705996,129.032426 C16.8271618,129.027844 14.1116024,127.802016 12.1109031,125.792121 C10.1187618,123.777914 8.90004956,121.041094 8.89791006,117.973828 L8.89791006,20.0283281 C8.90004956,16.9589063 10.1187618,14.2220859 12.1109031,12.2057227 C14.1116024,10.1979844 16.8247549,8.97 19.8705996,8.96757422 L89.1294004,8.96757422 C92.1752451,8.96973047 94.8883976,10.1979844 96.8890969,12.2057227 C98.8809707,14.2223555 100.09995,16.9589063 100.102357,20.0283281 L100.102357,117.973828 L100.102357,117.973828 Z" id="Shape"></path>
            <path d="M55.5021323,32 C41.9681999,32 31.0042647,42.9665448 31,56.4989338 C31.0042647,70.0334552 41.9681999,80.9978676 55.5021323,81 C69.0318001,80.9978676 80,70.0334552 80,56.4989338 C80,42.9665448 69.0318001,32 55.5021323,32 Z M41.1584456,42.1567552 C43.2715899,40.0435189 45.8458517,38.3980841 48.7122435,37.3803827 C47.341685,39.0431436 46.1920897,41.1782373 45.2957092,43.6377266 L39.8158739,43.6377266 C40.2338117,43.1224786 40.6863998,42.628555 41.1584456,42.1567552 Z M38.2571368,45.8138695 L44.5923051,45.8138695 C43.7804184,48.7043758 43.2931798,51.9584612 43.202289,55.4121951 L35.241215,55.4121951 C35.4296601,51.897687 36.5099545,48.6262756 38.2571368,45.8138695 Z M35.241215,57.5856725 L43.2129507,57.5856725 C43.3017091,61.0412723 43.7737549,64.2932252 44.5920386,67.1861305 L38.2568703,67.1861305 C36.5099545,64.3713254 35.4296601,61.1020465 35.241215,57.5856725 Z M41.1584456,70.8429782 C40.6863998,70.3709119 40.2338117,69.87299 39.8161405,69.3598744 L45.2959758,69.3598744 C45.6899247,70.4292872 46.114526,71.4363263 46.5972334,72.3649988 C47.2252062,73.5860805 47.9310092,74.6733523 48.7103777,75.6193507 C45.8415871,74.5997835 43.2694576,72.9583469 41.1584456,70.8429782 Z M54.4173067,76.7562014 C54.0753334,76.7388755 53.7397572,76.7130198 53.3996497,76.6826327 C52.8692313,76.440069 52.3388129,76.1154068 51.8147914,75.6867887 C50.2214039,74.383342 48.7426293,72.1813434 47.6146239,69.360141 L54.4173067,69.360141 L54.4173067,76.7562014 L54.4173067,76.7562014 Z M54.4173067,67.1861305 L46.8589776,67.1861305 C45.9993799,64.3627957 45.4689615,61.0889854 45.380203,57.5856725 L54.4173067,57.5856725 L54.4173067,67.1861305 Z M54.4173067,55.4119285 L45.3847342,55.4119285 C45.4734927,51.9086157 46.0084423,48.6348054 46.8699058,45.8136029 L54.4173067,45.8136029 L54.4173067,55.4119285 L54.4173067,55.4119285 Z M54.4173067,43.6377266 L47.6276845,43.6377266 C47.9070204,42.9340253 48.2036815,42.2521814 48.5261973,41.6284462 C49.4918786,39.7620384 50.6241487,38.2853319 51.8147914,37.3110788 C52.3388129,36.8867256 52.8692313,36.5620635 53.3996497,36.3194997 C53.7394906,36.2893792 54.0750669,36.263257 54.4173067,36.2437986 L54.4173067,43.6377266 Z M75.758785,55.4119285 L67.7867828,55.4119285 C67.702289,51.9605936 67.2259786,48.7041093 66.4119596,45.8136029 L72.7425967,45.8136029 C74.4897789,48.6262756 75.5746045,51.897687 75.758785,55.4119285 Z M69.8479514,42.1567552 C70.3197306,42.6288215 70.7659218,43.1224786 71.1902565,43.6377266 L65.7040242,43.6377266 C65.3164723,42.5725787 64.885474,41.5591422 64.4027666,40.6323357 C63.7790585,39.4155189 63.0711232,38.3242488 62.2938869,37.3803827 C65.1605453,38.4023489 67.7326748,40.0435189 69.8479514,42.1567552 Z M56.5890903,36.243532 C56.9289312,36.2629904 57.2645075,36.2891126 57.6000838,36.3192332 C58.1305022,36.5617969 58.6609206,36.8864591 59.184942,37.3108123 C60.7804619,38.6121266 62.2637677,40.8141252 63.3851096,43.63746 L56.5888237,43.63746 L56.5888237,36.243532 L56.5890903,36.243532 Z M56.5890903,45.8138695 L64.1407559,45.8138695 C65.0046182,48.6350719 65.530772,51.9088822 65.6259275,55.4121951 L56.5888237,55.4121951 L56.5888237,45.8138695 L56.5890903,45.8138695 Z M56.5890903,57.5856725 L65.6152658,57.5856725 C65.5222427,61.0935168 64.9918242,64.3627957 64.1364912,67.1861305 L56.5890903,67.1861305 L56.5890903,57.5856725 Z M59.184942,75.6865222 C58.6609206,76.1151402 58.1305022,76.4398024 57.6000838,76.6823661 C57.2645075,76.7127532 56.9289312,76.7386089 56.5890903,76.7559349 L56.5890903,69.3598744 L63.3744479,69.3598744 C63.0929796,70.0657082 62.7984508,70.7496845 62.4780674,71.3691549 C61.512386,73.2379616 60.3758513,74.7122691 59.184942,75.6865222 Z M69.8479514,70.8429782 C67.7305424,72.9583469 65.1584129,74.5997835 62.2874899,75.6193507 C63.6644455,73.9541909 64.8076438,71.8238952 65.7040242,69.3598744 L71.1902565,69.3598744 C70.7659218,69.87299 70.3199972,70.3709119 69.8479514,70.8429782 Z M72.7425967,67.1861305 L66.4074284,67.1861305 C67.219315,64.2934917 67.7065537,61.0412723 67.7974445,57.5856725 L75.7585185,57.5856725 C75.5746045,61.1020465 74.4897789,64.3713254 72.7425967,67.1861305 Z" id="Shape"></path>
            <path d="M30.9724004,94 L24.257047,94 L24,94.2798154 L24,112.720185 L24.257047,113 L27.4882403,113 L27.7409522,112.720185 L27.7409522,106.376861 L27.8942113,106.210765 L30.9721454,106.210765 C34.7130975,106.210765 37,103.694386 37,100.117847 C37.000255,96.4866881 34.7383432,94 30.9724004,94 Z M30.7446792,102.661674 L27.8944663,102.661674 L27.7412072,102.493057 L27.7412072,97.7151871 L27.8944663,97.5468497 L30.7446792,97.5468497 C32.3188372,97.5468497 33.263383,98.5820827 33.263383,100.117847 C33.263383,101.655851 32.3188372,102.661674 30.7446792,102.661674 Z" id="Shape"></path>
            <path d="M48.6896092,94 L45.416089,94 L45.0776465,94.2798154 L39,112.720185 L39.1817176,113 L42.5864493,113 L42.9207263,112.720185 L43.9105405,109.396011 L50.0897198,109.396011 L51.104787,112.720185 L51.4432295,113 L54.8182824,113 L55,112.720185 L49.0280517,94.2798154 L48.6896092,94 Z M44.9763741,105.90378 L46.9726643,99.2534717 L47.0531094,99.2534717 L49.053565,105.90378 L44.9763741,105.90378 Z" id="Shape"></path>
            <path d="M64.3489031,101.631962 L63.3939485,101.497387 C61.3381618,101.197578 60.5981845,100.521177 60.5981845,99.4651996 C60.5981845,98.3017793 61.4154689,97.4642143 62.9981467,97.4642143 C64.4775718,97.4642143 65.7981467,97.9512338 67.1743191,98.8704661 L67.5441754,98.7887988 L69.1527987,96.327112 L69.1011724,95.9217599 C67.5958017,94.7295796 65.3763993,94 62.9981467,94 C59.1184947,94 56.6324886,96.245716 56.6324886,99.6288056 C56.6324886,102.877321 58.6668305,104.636288 62.3142965,105.151796 L63.2647503,105.2861 C65.4023449,105.583738 66.0388048,106.26041 66.0388048,107.342434 C66.0388048,108.6426 64.9808623,109.535243 63.1053706,109.535243 C61.2041981,109.535243 59.5913389,108.616011 58.4044629,107.639801 L58.0086611,107.668561 L56,110.022534 L56.0259455,110.483235 C57.4280635,111.862898 60.1462556,113 62.9462556,113 C67.5958017,113 70,110.538313 70,107.208131 C70.0005294,103.877678 68.0434946,102.145299 64.3489031,101.631962 Z" id="Path"></path>
            <path d="M81.3463983,101.63207 L80.3956568,101.497494 C78.3347458,101.197681 77.5948093,100.52127 77.5948093,99.4652777 C77.5948093,98.3018407 78.4123411,97.4642638 79.9997352,97.4642638 C81.4798729,97.4642638 82.8005826,97.9512902 84.1729343,98.8705357 L84.5429025,98.7888672 L86.15625,96.3271452 L86.1003708,95.9217873 C84.5945445,94.72959 82.3789725,94 79.9997352,94 C76.1146716,94 73.6321504,96.2457481 73.6321504,99.628886 C73.6321504,102.877447 75.6671081,104.63644 79.3111758,105.151956 L80.2619174,105.286261 C82.404661,105.583903 83.0370763,106.260585 83.0370763,107.342625 C83.0370763,108.642809 81.9785487,109.535465 80.1030191,109.535465 C78.2012712,109.535465 76.592161,108.616219 75.4004237,107.639996 L75.0047669,107.668485 L73,110.022491 L73.0259534,110.483199 C74.4242585,111.862881 77.1477754,113 79.9486229,113 C84.5950742,113 87,110.538278 87,107.208048 C86.9997352,103.877819 85.0463453,102.145415 81.3463983,101.63207 Z" id="Path"></path>
        </g>
    </g>
</svg>